<svg width="15" height="15" viewBox="0 0 15 15" fill="none" xmlns="http://www.w3.org/2000/svg">
<path d="M3.125 3.4375C3.125 2.85734 3.35547 2.30094 3.7657 1.8907C4.17594 1.48047 4.73234 1.25 5.3125 1.25H7.5V5.625H5.3125C4.73234 5.625 4.17594 5.39453 3.7657 4.9843C3.35547 4.57406 3.125 4.01766 3.125 3.4375Z" stroke="black" stroke-width="1.25" stroke-linecap="round" stroke-linejoin="round"/>
<path d="M7.5 1.25H9.6875C9.97477 1.25 10.2592 1.30658 10.5246 1.41651C10.79 1.52645 11.0312 1.68758 11.2343 1.8907C11.4374 2.09383 11.5986 2.33498 11.7085 2.60038C11.8184 2.86578 11.875 3.15023 11.875 3.4375C11.875 3.72477 11.8184 4.00922 11.7085 4.27462C11.5986 4.54002 11.4374 4.78117 11.2343 4.9843C11.0312 5.18742 10.79 5.34855 10.5246 5.45849C10.2592 5.56842 9.97477 5.625 9.6875 5.625H7.5V1.25Z" stroke="black" stroke-width="1.25" stroke-linecap="round" stroke-linejoin="round"/>
<path d="M7.5 7.8125C7.5 7.52523 7.55658 7.24078 7.66651 6.97538C7.77645 6.70998 7.93758 6.46883 8.1407 6.2657C8.34383 6.06258 8.58498 5.90145 8.85038 5.79151C9.11578 5.68158 9.40023 5.625 9.6875 5.625C9.97477 5.625 10.2592 5.68158 10.5246 5.79151C10.79 5.90145 11.0312 6.06258 11.2343 6.2657C11.4374 6.46883 11.5986 6.70998 11.7085 6.97538C11.8184 7.24078 11.875 7.52523 11.875 7.8125C11.875 8.09977 11.8184 8.38422 11.7085 8.64962C11.5986 8.91502 11.4374 9.15617 11.2343 9.3593C11.0312 9.56242 10.79 9.72355 10.5246 9.83349C10.2592 9.94342 9.97477 10 9.6875 10C9.40023 10 9.11578 9.94342 8.85038 9.83349C8.58498 9.72355 8.34383 9.56242 8.1407 9.3593C7.93758 9.15617 7.77645 8.91502 7.66651 8.64962C7.55658 8.38422 7.5 8.09977 7.5 7.8125V7.8125Z" stroke="black" stroke-width="1.25" stroke-linecap="round" stroke-linejoin="round"/>
<path d="M3.125 12.1875C3.125 11.6073 3.35547 11.0509 3.7657 10.6407C4.17594 10.2305 4.73234 10 5.3125 10H7.5V12.1875C7.5 12.7677 7.26953 13.3241 6.8593 13.7343C6.44906 14.1445 5.89266 14.375 5.3125 14.375C4.73234 14.375 4.17594 14.1445 3.7657 13.7343C3.35547 13.3241 3.125 12.7677 3.125 12.1875Z" stroke="black" stroke-width="1.25" stroke-linecap="round" stroke-linejoin="round"/>
<path d="M3.125 7.8125C3.125 7.23234 3.35547 6.67594 3.7657 6.2657C4.17594 5.85547 4.73234 5.625 5.3125 5.625H7.5V10H5.3125C4.73234 10 4.17594 9.76953 3.7657 9.3593C3.35547 8.94906 3.125 8.39266 3.125 7.8125Z" stroke="black" stroke-width="1.25" stroke-linecap="round" stroke-linejoin="round"/>
</svg>
