<svg width="14" height="14" viewBox="0 0 14 14" fill="none" xmlns="http://www.w3.org/2000/svg">
<path d="M8.16665 1.16667H3.49998C3.19056 1.16667 2.89381 1.28959 2.67502 1.50838C2.45623 1.72717 2.33331 2.02392 2.33331 2.33334V11.6667C2.33331 11.9761 2.45623 12.2728 2.67502 12.4916C2.89381 12.7104 3.19056 12.8333 3.49998 12.8333H10.5C10.8094 12.8333 11.1061 12.7104 11.3249 12.4916C11.5437 12.2728 11.6666 11.9761 11.6666 11.6667V4.66667L8.16665 1.16667Z" stroke="black" stroke-width="1.16667" stroke-linecap="round" stroke-linejoin="round"/>
<path d="M8.16669 1.16667V4.66667H11.6667" stroke="black" stroke-width="1.16667" stroke-linecap="round" stroke-linejoin="round"/>
<path d="M9.33335 7.58333H4.66669" stroke="black" stroke-width="1.16667" stroke-linecap="round" stroke-linejoin="round"/>
<path d="M9.33335 9.91667H4.66669" stroke="black" stroke-width="1.16667" stroke-linecap="round" stroke-linejoin="round"/>
<path d="M5.83335 5.25H5.25002H4.66669" stroke="black" stroke-width="1.16667" stroke-linecap="round" stroke-linejoin="round"/>
</svg>
