<svg width="14" height="14" viewBox="0 0 14 14" fill="none" xmlns="http://www.w3.org/2000/svg">
<g clip-path="url(#clip0)">
<path d="M9.33335 12.8333V10.5758C9.35524 10.2977 9.31766 10.0181 9.22311 9.75554C9.12857 9.49304 8.97923 9.25366 8.78502 9.05333C10.6167 8.84917 12.5417 8.155 12.5417 4.97C12.5415 4.15556 12.2283 3.37236 11.6667 2.7825C11.9326 2.06996 11.9138 1.28237 11.6142 0.583333C11.6142 0.583333 10.9259 0.379166 9.33335 1.44667C7.99636 1.08431 6.58702 1.08431 5.25002 1.44667C3.65752 0.379166 2.96919 0.583333 2.96919 0.583333C2.66957 1.28237 2.65077 2.06996 2.91669 2.7825C2.35093 3.37674 2.03733 4.16702 2.04169 4.9875C2.04169 8.14917 3.96669 8.84333 5.79835 9.07083C5.60644 9.26915 5.45842 9.50565 5.36395 9.76495C5.26948 10.0243 5.23066 10.3005 5.25002 10.5758V12.8333M5.25002 11.0833C2.33335 11.9583 2.33335 9.625 1.16669 9.33333L5.25002 11.0833Z" stroke="black" stroke-width="1.16667" stroke-linecap="round" stroke-linejoin="round"/>
</g>
<defs>
<clipPath id="clip0">
<rect width="14" height="14" fill="white"/>
</clipPath>
</defs>
</svg>
