<svg width="15" height="15" viewBox="0 0 15 15" fill="none" xmlns="http://www.w3.org/2000/svg">
<g clip-path="url(#clip0)">
<path d="M10 13.75V11.3312C10.0234 11.0332 9.98318 10.7336 9.88189 10.4524C9.78059 10.1711 9.62058 9.91463 9.4125 9.69999C11.375 9.48124 13.4375 8.73749 13.4375 5.32499C13.4373 4.45238 13.1017 3.61324 12.5 2.98124C12.7849 2.21781 12.7648 1.37396 12.4438 0.624992C12.4438 0.624992 11.7063 0.406242 10 1.54999C8.56751 1.16176 7.05749 1.16176 5.625 1.54999C3.91875 0.406242 3.18125 0.624992 3.18125 0.624992C2.86024 1.37396 2.84009 2.21781 3.125 2.98124C2.51883 3.61793 2.18283 4.46466 2.1875 5.34374C2.1875 8.73124 4.25 9.47499 6.2125 9.71874C6.00687 9.93122 5.84829 10.1846 5.74707 10.4624C5.64585 10.7403 5.60426 11.0363 5.625 11.3312V13.75M5.625 11.875C2.5 12.8125 2.5 10.3125 1.25 9.99999L5.625 11.875Z" stroke="black" stroke-width="1.25" stroke-linecap="round" stroke-linejoin="round"/>
</g>
<defs>
<clipPath id="clip0">
<rect width="15" height="15" fill="white"/>
</clipPath>
</defs>
</svg>
