<svg width="14" height="14" viewBox="0 0 14 14" fill="none" xmlns="http://www.w3.org/2000/svg">
<path d="M13.1484 3.74499C13.0791 3.46815 12.938 3.2145 12.7393 3.00965C12.5406 2.8048 12.2913 2.65602 12.0167 2.57833C11.0134 2.33333 7.00007 2.33333 7.00007 2.33333C7.00007 2.33333 2.98674 2.33333 1.9834 2.60166C1.7088 2.67935 1.45956 2.82814 1.26085 3.03298C1.06215 3.23783 0.921029 3.49148 0.851736 3.76833C0.668111 4.78657 0.57829 5.81951 0.583402 6.85416C0.576857 7.8966 0.666683 8.93742 0.851736 9.96333C0.928129 10.2316 1.07241 10.4756 1.27065 10.6718C1.46889 10.868 1.71438 11.0097 1.9834 11.0833C2.98674 11.3517 7.00007 11.3517 7.00007 11.3517C7.00007 11.3517 11.0134 11.3517 12.0167 11.0833C12.2913 11.0056 12.5406 10.8569 12.7393 10.652C12.938 10.4472 13.0791 10.1935 13.1484 9.91666C13.3306 8.90609 13.4204 7.88102 13.4167 6.85416C13.4233 5.81172 13.3335 4.7709 13.1484 3.74499Z" stroke="black" stroke-width="1.16667" stroke-linecap="round" stroke-linejoin="round"/>
<path d="M5.6875 8.76167L9.04167 6.85417L5.6875 4.94667V8.76167Z" stroke="black" stroke-width="1.16667" stroke-linecap="round" stroke-linejoin="round"/>
</svg>
